Coordinates
version=1
nRows=6
nColumns=36
inDegrees=yes

Units are S.I. units (second, meters, Newtons, ...)
Angles are in degrees.

endheader
time	pelvis_tilt	pelvis_list	pelvis_rotation	pelvis_tx	pelvis_ty	pelvis_tz	hip_flexion_r	hip_adduction_r	hip_rotation_r	knee_angle_r	ankle_angle_r	subtalar_angle_r	hip_flexion_l	hip_adduction_l	hip_rotation_l	knee_angle_l	ankle_angle_l	subtalar_angle_l	lumbar_extension	lumbar_bending	lumbar_rotation	arm_flex_r	arm_add_r	arm_rot_r	elbow_flex_r	pro_sup_r	wrist_flex_r	wrist_dev_r	arm_flex_l	arm_add_l	arm_rot_l	elbow_flex_l	pro_sup_l	wrist_flex_l	wrist_dev_l
      1.10000000	      0.97324985	     -4.99849610	      6.79980692	     -0.27183401	      0.91340906	      0.22194295	     13.05369997	      9.38908402	     -7.44336691	    -24.13106995	      6.02007882	     -3.10990843	     13.94759326	     -2.65727592	      7.15123854	    -65.84449985	     -3.44696638	      1.68992928	     -6.30636378	      7.67171659	     -6.03912755	     -2.62068680	    -17.25095024	     12.56144063	     19.95580889	     86.51662706	      0.00000000	      0.00000000	      4.78933287	    -13.62567662	     25.65748062	     21.07625935	     86.51662706	      0.00000000	      0.00000000
      1.11000000	      0.82789597	     -4.53632481	      6.64862317	     -0.25913532	      0.91537306	      0.22202731	     11.79820226	      9.00034282	     -7.36721283	    -23.36097871	      6.53251155	     -2.45896916	     15.70451238	     -1.90944262	      7.11134260	    -65.60535996	     -2.10868071	      1.14791571	     -6.31533871	      7.11452463	     -5.54286866	     -2.28010683	    -17.43400916	     12.67125726	     20.88089915	     86.51662706	      0.00000000	      0.00000000	      4.54067241	    -13.47751660	     26.61378621	     19.70184508	     86.51662706	      0.00000000	      0.00000000
      1.12000000	      0.66540150	     -4.06680725	      6.42835876	     -0.24643858	      0.91714078	      0.22220359	     10.56707288	      8.62089195	     -7.13354616	    -22.58256694	      7.00591423	     -1.91160550	     17.38235749	     -1.23337754	      6.91819518	    -65.01626065	     -0.92631836	      0.56807306	     -6.30501567	      6.53875960	     -5.00393947	     -1.93517866	    -17.63526350	     12.78854197	     21.82782591	     86.51662706	      0.00000000	      0.00000000	      4.21982307	    -13.34957682	     27.43826550	     18.44084817	     86.51662706	      0.00000000	      0.00000000
      1.13000000	      0.49854303	     -3.60441252	      6.14773960	     -0.23373437	      0.91867275	      0.22246445	      9.35791019	      8.26698146	     -6.76209281	    -21.80197314	      7.44618247	     -1.47241451	     18.96610405	     -0.64275351	      6.60093598	    -64.09305868	      0.09255728	     -0.06909007	     -6.28913744	      5.96568629	     -4.43188003	     -1.58228755	    -17.85892284	     12.90257022	     22.80227892	     86.51662706	      0.00000000	      0.00000000	      3.83638252	    -13.24253099	     28.12177618	     17.29349071	     86.51662706	      0.00000000	      0.00000000
      1.14000000	      0.34061662	     -3.16121727	      5.81768271	     -0.22102615	      0.91994561	      0.22279112	      8.16292157	      7.94891542	     -6.28850481	    -21.02452354	      7.86106222	     -1.13335187	     20.43925000	     -0.14249950	      6.19717176	    -62.85075045	      0.93927017	     -0.76867258	     -6.28146481	      5.41426615	     -3.83759042	     -1.21727771	    -18.10752285	     13.00476443	     23.80712197	     86.51662706	      0.00000000	      0.00000000	      3.40162780	    -13.15683495	     28.66386848	     16.25379690	     86.51662706	      0.00000000	      0.00000000
      1.15000000	      0.20461831	     -2.74823768	      5.45113370	     -0.20832804	      0.92095471	      0.22316110	      6.96803364	      7.67011243	     -5.75843483	    -20.25318052	      8.25962535	     -0.87406117	     21.78638758	      0.26823313	      5.74722786	    -61.30366150	      1.60658939	     -1.52743034	     -6.29524641	      4.90080957	     -3.23316588	     -0.83606135	    -18.38175528	     13.08914230	     24.84174510	     86.51662706	      0.00000000	      0.00000000	      2.92733574	    -13.09170686	     29.07180258	     15.31162737	     86.51662706	      0.00000000	      0.00000000
